<svg id="Layer_1" data-name="Layer 1" xmlns="http://www.w3.org/2000/svg" viewBox="0 0 176.67 88.33"><defs><style>.cls-1{fill:#02d38d;}.cls-2{opacity:0.1;}.cls-3{fill:none;stroke:#02d38d;stroke-miterlimit:10;stroke-width:1.42px;}</style></defs><title>Artboard 3</title><path class="cls-1" d="M84.88,85.78,67.59,28.13l86.79-26,17.29,57.65ZM71.49,30.23,87,81.89l80.8-24.23L152.29,6Z"/><path class="cls-1" d="M119.45,22,127,47.08l-40.08,12L79.37,34l40.08-12M121,19,76.45,32.42,85.32,62,129.9,48.65,121,19Z"/><rect class="cls-1" x="83.61" y="33.37" width="18.76" height="4.69" transform="translate(-6.34 28.22) rotate(-16.7)"/><rect class="cls-1" x="85.62" y="40.62" width="11.22" height="4.69" transform="translate(-8.5 28.01) rotate(-16.69)"/><rect class="cls-1" x="88.29" y="50.9" width="8.46" height="2.35" transform="translate(-11.06 28.76) rotate(-16.69)"/><rect class="cls-1" x="131.73" y="13.77" width="18.76" height="2.35" transform="translate(1.65 41.15) rotate(-16.69)"/><rect class="cls-1" x="144.27" y="17.23" width="7.73" height="7.73" transform="translate(0.18 43.43) rotate(-16.69)"/><rect class="cls-1" x="127.07" y="57.21" width="35.5" height="2.35" transform="translate(-10.67 44.04) rotate(-16.69)"/><rect class="cls-1" x="144.41" y="48.77" width="16.15" height="2.35" transform="translate(-7.92 45.89) rotate(-16.69)"/><g class="cls-2"><rect class="cls-1" x="75.89" y="15.41" width="87.48" height="57.06" transform="translate(-7.58 36.21) rotate(-16.69)"/></g><line class="cls-3" x1="38.67" y1="9.78" x2="113.3" y2="9.78"/><line class="cls-3" x1="26.17" y1="15.95" x2="89.92" y2="15.95"/><line class="cls-3" x1="21.17" y1="22.12" x2="73.8" y2="22.12"/><line class="cls-3" x1="61.3" y1="28.29" x2="26.94" y2="28.29"/><line class="cls-3" x1="17.14" y1="34.46" x2="62.92" y2="34.46"/><line class="cls-3" x1="2.02" y1="40.68" x2="65.42" y2="40.53"/><line class="cls-3" x1="9.21" y1="46.81" x2="67.59" y2="46.81"/><line class="cls-3" x1="23.92" y1="52.98" x2="70.17" y2="52.98"/><line class="cls-3" x1="37.8" y1="59.15" x2="71.67" y2="59.15"/><line class="cls-3" x1="33.05" y1="65.32" x2="73.8" y2="65.32"/><line class="cls-3" x1="76.45" y1="71.49" x2="23.92" y2="71.49"/><line class="cls-3" x1="44.92" y1="77.66" x2="77.42" y2="77.66"/></svg>