<svg id="Layer_1" data-name="Layer 1" xmlns="http://www.w3.org/2000/svg" viewBox="0 0 135.17 96.37"><defs><style>.cls-1{fill:#02d38d;}.cls-2{fill:#a5a4a4;}.cls-3{opacity:0.1;}.cls-4{fill:#fff;opacity:0.75;}</style></defs><title>Artboard 2</title><path class="cls-1" d="M129,90.1H7.45V9.37H129ZM11.65,85.9H124.78V13.57H11.65Z"/><path class="cls-1" d="M45.23,28.56V53.47H20.32V28.56H45.23m3.15-3.15H17.17V56.62H48.38V25.41Z"/><path class="cls-1" d="M115.67,28.56V53.47H54.36V28.56h61.3m3.15-3.15H51.22V56.62h67.6V25.41Z"/><path class="cls-1" d="M115.67,68.65v7.43H20.32V68.65h95.35m3.15-3.15H17.17V79.22H118.81V65.5Z"/><rect class="cls-1" x="17.17" y="60.8" width="25.66" height="7.66"/><rect class="cls-1" x="17.17" y="20.49" width="25.66" height="7.66"/><rect class="cls-1" x="51.22" y="20.49" width="25.66" height="7.66"/><path class="cls-2" d="M41.88,50.39h-18v-18h18ZM27,47.24H38.73V35.5H27Z"/><path class="cls-2" d="M36.07,44.58H29.66V38.16h6.41ZM32.8,41.43h.12v-.12H32.8Z"/><rect class="cls-2" x="57.38" y="31.61" width="13.08" height="3.15"/><rect class="cls-2" x="98.09" y="32.35" width="11.42" height="3.15"/><rect class="cls-2" x="78.85" y="32.35" width="8.44" height="3.15"/><rect class="cls-2" x="57.38" y="47.15" width="16.84" height="3.15"/><rect class="cls-2" x="98.09" y="47.89" width="8.88" height="3.15"/><rect class="cls-2" x="78.85" y="47.89" width="8.44" height="3.15"/><rect class="cls-2" x="57.38" y="41.97" width="10.09" height="3.15"/><rect class="cls-2" x="98.09" y="42.71" width="14.83" height="3.15"/><rect class="cls-2" x="78.85" y="42.71" width="16.16" height="3.15"/><rect class="cls-2" x="57.38" y="36.79" width="15.58" height="3.15"/><rect class="cls-2" x="98.09" y="37.53" width="4.95" height="3.15"/><rect class="cls-2" x="78.85" y="37.53" width="8.08" height="3.15"/><path class="cls-2" d="M112.92,74.1h-6.28V71h6.28Zm-10.48,0H96.15V71h6.29ZM92,74.1H85.66V71H92Zm-10.49,0H75.17V71h6.29ZM71,74.1H64.68V71H71Zm-10.49,0H54.19V71h6.29ZM50,74.1H43.7V71H50Zm-10.49,0H33.21V71h6.29ZM29,74.1H22.72V71H29Z"/><g class="cls-3"><rect class="cls-1" x="9.55" y="11.47" width="117.33" height="76.53"/></g><path class="cls-4" d="M.5-.13,0,96.95l135.17-.58V-.13ZM118.81,56.62H51.22V20.49H76.87l0,4.88,42,0Z"/></svg>