<?xml version="1.0" encoding="utf-8"?>
<!-- Generator: Adobe Illustrator 21.0.2, SVG Export Plug-In . SVG Version: 6.00 Build 0)  -->
<!DOCTYPE svg PUBLIC "-//W3C//DTD SVG 1.1//EN" "http://www.w3.org/Graphics/SVG/1.1/DTD/svg11.dtd">
<svg version="1.1" id="Layer_1" xmlns="http://www.w3.org/2000/svg" xmlns:xlink="http://www.w3.org/1999/xlink" x="0px" y="0px"
	 viewBox="0 0 135.2 96.4" style="enable-background:new 0 0 135.2 96.4;" xml:space="preserve">
<style type="text/css">
	.st0{fill:#E9FBF4;}
	.st1{fill:#F8FEFC;}
	.st2{display:none;opacity:0.36;fill:#D0E9ED;}
	.st3{fill:none;stroke:#02D38D;stroke-width:5.6693;stroke-miterlimit:10;}
	.st4{fill:#02D38D;}
	.st5{fill:none;stroke:#02D38D;stroke-width:8.5039;stroke-miterlimit:10;}
	.st6{fill:none;stroke:#02D38D;stroke-width:4.252;stroke-miterlimit:10;}
	.st7{fill-rule:evenodd;clip-rule:evenodd;fill:#02D38D;}
	.st8{fill:none;stroke:#A5A4A4;stroke-width:4.252;stroke-miterlimit:10;}
	.st9{fill:none;stroke:#A5A4A4;stroke-width:4.252;stroke-miterlimit:10;stroke-dasharray:8.5039,5.6693;}
	.st10{fill:#A5A4A4;}
	.st11{opacity:0.1;}
	.st12{fill:#BFF3E3;}
	.st13{fill:#E4EAE8;}
</style>
<rect x="9.5" y="11.5" class="st1" width="117.5" height="77"/>
<path class="st12" d="M129,90.1H7.5V9.4H129V90.1z M11.6,85.9h113.1V13.6H11.6V85.9z"/>
<path class="st12" d="M45.2,28.6v24.9H20.3V28.6H45.2 M48.4,25.4H17.2v31.2h31.2V25.4L48.4,25.4z"/>
<path class="st4" d="M115.7,28.6v24.9H54.4V28.6H115.7 M118.8,25.4H51.2v31.2h67.6V25.4L118.8,25.4z"/>
<path class="st12" d="M115.7,68.6v7.4H20.3v-7.4H115.7 M118.8,65.5H17.2v13.7h101.6V65.5L118.8,65.5z"/>
<rect x="17.2" y="60.8" class="st12" width="25.7" height="7.7"/>
<rect x="17.2" y="20.5" class="st12" width="25.7" height="7.7"/>
<rect x="51.2" y="20.5" class="st4" width="25.7" height="7.7"/>
<path class="st13" d="M41.9,50.4h-18v-18h18V50.4z M27,47.2h11.7V35.5H27V47.2z"/>
<path class="st13" d="M36.1,44.6h-6.4v-6.4h6.4V44.6z M32.8,41.4h0.1v-0.1h-0.1V41.4z"/>
<rect x="57.4" y="31.6" class="st10" width="13.1" height="3.1"/>
<rect x="98.1" y="32.4" class="st10" width="11.4" height="3.1"/>
<rect x="78.8" y="32.4" class="st10" width="8.4" height="3.1"/>
<rect x="57.4" y="47.2" class="st10" width="16.8" height="3.1"/>
<rect x="98.1" y="47.9" class="st10" width="8.9" height="3.1"/>
<rect x="78.8" y="47.9" class="st10" width="8.4" height="3.1"/>
<rect x="57.4" y="42" class="st10" width="10.1" height="3.1"/>
<rect x="98.1" y="42.7" class="st10" width="14.8" height="3.1"/>
<rect x="78.8" y="42.7" class="st10" width="16.2" height="3.1"/>
<rect x="57.4" y="36.8" class="st10" width="15.6" height="3.1"/>
<rect x="98.1" y="37.5" class="st10" width="4.9" height="3.1"/>
<rect x="78.8" y="37.5" class="st10" width="8.1" height="3.1"/>
<path class="st13" d="M112.9,74.1h-6.3V71h6.3V74.1z M102.4,74.1h-6.3V71h6.3V74.1z M92,74.1h-6.3V71H92V74.1z M81.5,74.1h-6.3V71
	h6.3V74.1z M71,74.1h-6.3V71H71V74.1z M60.5,74.1h-6.3V71h6.3V74.1z M50,74.1h-6.3V71H50V74.1z M39.5,74.1h-6.3V71h6.3V74.1z
	 M29,74.1h-6.3V71H29V74.1z"/>
</svg>
