<?xml version="1.0" encoding="UTF-8" standalone="no"?>
<!-- Created with Inkscape (http://www.inkscape.org/) -->

<svg
   xmlns:dc="http://purl.org/dc/elements/1.1/"
   xmlns:cc="http://creativecommons.org/ns#"
   xmlns:rdf="http://www.w3.org/1999/02/22-rdf-syntax-ns#"
   xmlns:svg="http://www.w3.org/2000/svg"
   xmlns="http://www.w3.org/2000/svg"
   xmlns:sodipodi="http://sodipodi.sourceforge.net/DTD/sodipodi-0.dtd"
   xmlns:inkscape="http://www.inkscape.org/namespaces/inkscape"
   width="210mm"
   height="297mm"
   viewBox="0 0 744.09448819 1052.3622047"
   id="svg9596"
   version="1.1"
   inkscape:version="0.91 r13725"
   sodipodi:docname="derivation-2.svg">
  <defs
     id="defs9598">
    <marker
       inkscape:isstock="true"
       style="overflow:visible;"
       id="marker13417"
       refX="0.0"
       refY="0.0"
       orient="auto"
       inkscape:stockid="Arrow1Lend">
      <path
         transform="scale(0.8) rotate(180) translate(12.5,0)"
         style="fill-rule:evenodd;stroke:#000000;stroke-width:1pt;stroke-opacity:1;fill:#000000;fill-opacity:1"
         d="M 0.0,0.0 L 5.0,-5.0 L -12.5,0.0 L 5.0,5.0 L 0.0,0.0 z "
         id="path13419" />
    </marker>
    <marker
       inkscape:stockid="Arrow1Lend"
       orient="auto"
       refY="0.0"
       refX="0.0"
       id="marker13117"
       style="overflow:visible;"
       inkscape:isstock="true"
       inkscape:collect="always">
      <path
         id="path13119"
         d="M 0.0,0.0 L 5.0,-5.0 L -12.5,0.0 L 5.0,5.0 L 0.0,0.0 z "
         style="fill-rule:evenodd;stroke:#000000;stroke-width:1pt;stroke-opacity:1;fill:#000000;fill-opacity:1"
         transform="scale(0.8) rotate(180) translate(12.5,0)" />
    </marker>
    <marker
       inkscape:isstock="true"
       style="overflow:visible;"
       id="marker10927"
       refX="0.0"
       refY="0.0"
       orient="auto"
       inkscape:stockid="Arrow1Lend"
       inkscape:collect="always">
      <path
         transform="scale(0.8) rotate(180) translate(12.5,0)"
         style="fill-rule:evenodd;stroke:#000000;stroke-width:1pt;stroke-opacity:1;fill:#000000;fill-opacity:1"
         d="M 0.0,0.0 L 5.0,-5.0 L -12.5,0.0 L 5.0,5.0 L 0.0,0.0 z "
         id="path10929" />
    </marker>
    <marker
       inkscape:stockid="Arrow1Lend"
       orient="auto"
       refY="0.0"
       refX="0.0"
       id="Arrow1Lend"
       style="overflow:visible;"
       inkscape:isstock="true">
      <path
         id="path8370"
         d="M 0.0,0.0 L 5.0,-5.0 L -12.5,0.0 L 5.0,5.0 L 0.0,0.0 z "
         style="fill-rule:evenodd;stroke:#000000;stroke-width:1pt;stroke-opacity:1;fill:#000000;fill-opacity:1"
         transform="scale(0.8) rotate(180) translate(12.5,0)" />
    </marker>
  </defs>
  <sodipodi:namedview
     id="base"
     pagecolor="#ffffff"
     bordercolor="#666666"
     borderopacity="1.0"
     inkscape:pageopacity="0.0"
     inkscape:pageshadow="2"
     inkscape:zoom="2.6871738"
     inkscape:cx="175.35406"
     inkscape:cy="955.92726"
     inkscape:document-units="px"
     inkscape:current-layer="layer1"
     showgrid="false"
     inkscape:window-width="1280"
     inkscape:window-height="751"
     inkscape:window-x="0"
     inkscape:window-y="0"
     inkscape:window-maximized="1" />
  <metadata
     id="metadata9601">
    <rdf:RDF>
      <cc:Work
         rdf:about="">
        <dc:format>image/svg+xml</dc:format>
        <dc:type
           rdf:resource="http://purl.org/dc/dcmitype/StillImage" />
        <dc:title />
      </cc:Work>
    </rdf:RDF>
  </metadata>
  <g
     inkscape:label="Layer 1"
     inkscape:groupmode="layer"
     id="layer1">
    <g
       id="g11183">
      <g
         transform="matrix(3,0,0,3,17.323712,14.456063)"
         style="fill:none;fill-rule:evenodd;stroke:none;stroke-width:1"
         id="g10294">
        <g
           style="fill:#434343"
           transform="translate(0,1)"
           class="si-glyph-fill"
           id="g10296">
          <path
             inkscape:connector-curvature="0"
             d="m 14.194,13.958 -12.429,0 c -1.449,0 -1.729,-1.15 -1.729,-2.564 l 0,-8.787 c 0,-1.414 0.279,-2.564 1.729,-2.564 l 12.429,0 c 1.448,0 1.728,1.15 1.728,2.564 l 0,8.787 c 0,1.414 -0.279,2.564 -1.728,2.564 l 0,0 z M 1.923,1 C 1.414,1 1,1.426 1,1.948 L 1,12.052 C 1,12.574 1.414,13 1.923,13 l 12.154,0 C 14.586,13 15,12.574 15,12.052 L 15,1.948 C 15,1.426 14.586,1 14.077,1 l -12.154,0 0,0 z"
             class="si-glyph-fill"
             id="path10298" />
          <rect
             x="3"
             y="0"
             width="0.94800001"
             height="13.068"
             class="si-glyph-fill"
             id="rect10300" />
          <rect
             x="8"
             y="0"
             width="0.94800001"
             height="13.068"
             class="si-glyph-fill"
             id="rect10302" />
          <rect
             x="12"
             y="0"
             width="0.94800001"
             height="13.068"
             class="si-glyph-fill"
             id="rect10304" />
          <ellipse
             cx="3.438"
             cy="4.9759998"
             rx="1.438"
             ry="0.97600001"
             class="si-glyph-fill"
             id="ellipse10306" />
          <ellipse
             cx="3.438"
             cy="7.9759998"
             rx="1.438"
             ry="0.97600001"
             class="si-glyph-fill"
             id="ellipse10308" />
          <ellipse
             cx="3.438"
             cy="10.976"
             rx="1.438"
             ry="0.97600001"
             class="si-glyph-fill"
             id="ellipse10310" />
          <ellipse
             cx="8.4770002"
             cy="2.9760001"
             rx="1.477"
             ry="0.97600001"
             class="si-glyph-fill"
             id="ellipse10312" />
          <ellipse
             cx="8.4770002"
             cy="5.9759998"
             rx="1.477"
             ry="0.97600001"
             class="si-glyph-fill"
             id="ellipse10314" />
          <ellipse
             cx="8.4770002"
             cy="10.976"
             rx="1.477"
             ry="0.97600001"
             class="si-glyph-fill"
             id="ellipse10316" />
          <ellipse
             cx="12.435"
             cy="7.9770002"
             rx="1.4349999"
             ry="0.977"
             class="si-glyph-fill"
             id="ellipse10318" />
          <ellipse
             cx="12.435"
             cy="10.977"
             rx="1.4349999"
             ry="0.977"
             class="si-glyph-fill"
             id="ellipse10320" />
        </g>
      </g>
      <text
         sodipodi:linespacing="125%"
         id="text11147"
         y="76.69664"
         x="40.894501"
         style="font-style:normal;font-weight:normal;font-size:40px;line-height:125%;font-family:sans-serif;letter-spacing:0px;word-spacing:0px;fill:#000000;fill-opacity:1;stroke:none;stroke-width:1px;stroke-linecap:butt;stroke-linejoin:miter;stroke-opacity:1"
         xml:space="preserve"><tspan
           style="font-size:15px;text-align:center;text-anchor:middle"
           y="76.69664"
           x="40.894501"
           id="tspan11149"
           sodipodi:role="line">Randomness</tspan></text>
    </g>
    <g
       id="g11201">
      <g
         transform="matrix(3,0,0,3,133.7746,14.394562)"
         style="fill:none;fill-rule:evenodd;stroke:none;stroke-width:1"
         id="g10473">
        <path
           style="fill:#434343"
           inkscape:connector-curvature="0"
           d="M 14.763,0 3.178,0 C 1.998,0 1.043,0.966 1.043,2.155 l 0,11.69 c 0,1.189 0.955,2.154 2.135,2.154 l 11.585,0 c 1.181,0 2.136,-0.965 2.136,-2.154 l 0,-11.69 C 16.898,0.966 15.943,0 14.763,0 l 0,0 z M 5.002,6.153 c -1.146,0 -2.075,-0.951 -2.075,-2.123 0,-1.172 0.929,-2.123 2.075,-2.123 1.146,0 2.076,0.951 2.076,2.123 0,1.172 -0.93,2.123 -2.076,2.123 l 0,0 z m 8,0 c -1.146,0 -2.075,-0.951 -2.075,-2.123 0,-1.172 0.929,-2.123 2.075,-2.123 1.146,0 2.076,0.951 2.076,2.123 0,1.172 -0.93,2.123 -2.076,2.123 l 0,0 z m 0,8 c -1.146,0 -2.075,-0.951 -2.075,-2.123 0,-1.172 0.929,-2.123 2.075,-2.123 1.146,0 2.076,0.951 2.076,2.123 0,1.172 -0.93,2.123 -2.076,2.123 l 0,0 z m -4,-4 c -1.146,0 -2.075,-0.951 -2.075,-2.123 0,-1.172 0.929,-2.123 2.075,-2.123 1.146,0 2.076,0.951 2.076,2.123 0,1.172 -0.93,2.123 -2.076,2.123 l 0,0 z m -4,4 c -1.146,0 -2.075,-0.951 -2.075,-2.123 0,-1.172 0.929,-2.123 2.075,-2.123 1.146,0 2.076,0.951 2.076,2.123 0,1.172 -0.93,2.123 -2.076,2.123 l 0,0 z"
           class="si-glyph-fill"
           id="path10475" />
      </g>
      <text
         sodipodi:linespacing="125%"
         id="text11151"
         y="76.69664"
         x="145.96227"
         style="font-style:normal;font-weight:normal;font-size:15px;line-height:125%;font-family:sans-serif;letter-spacing:0px;word-spacing:0px;fill:#000000;fill-opacity:1;stroke:none;stroke-width:1px;stroke-linecap:butt;stroke-linejoin:miter;stroke-opacity:1"
         xml:space="preserve"><tspan
           y="76.69664"
           x="145.96227"
           id="tspan11153"
           sodipodi:role="line">Salt</tspan></text>
    </g>
    <g
       id="g11207">
      <g
         transform="matrix(3,0,0,3,250.10423,14.474063)"
         style="fill:none;fill-rule:evenodd;stroke:none;stroke-width:1"
         id="g10657">
        <path
           style="fill:#434343"
           inkscape:connector-curvature="0"
           d="M 12.927,0 C 10.779,0 9.031,1.802 9.031,4.017 l 0,1.662 C 8.268,5.272 7.404,5.028 6.479,5.028 c -3.017,0 -5.458,2.445 -5.458,5.458 0,3.017 2.441,5.46 5.458,5.46 3.015,0 5.458,-2.443 5.458,-5.46 0,-1.161 -0.38,-2.223 -1,-3.106 l 0,-3.362 c 0,-1.112 0.943,-2.017 1.989,-2.017 l 0.177,0 c 1.046,0 1.896,0.904 1.896,2.017 l 0,2.883 2,0 0,-2.883 C 17,1.802 15.252,0 13.104,0 L 12.927,0 Z M 7.416,11.467 9.994,10.714 c -0.119,1.847 -1.639,3.312 -3.515,3.312 -1.954,0 -3.54,-1.586 -3.54,-3.54 0,-1.953 1.586,-3.536 3.54,-3.536 1.888,0 3.419,1.484 3.521,3.349 L 7.427,9.518 C 7.182,9.279 6.849,9.13 6.48,9.13 c -0.75,0 -1.358,0.609 -1.358,1.356 -10e-4,0.749 0.607,1.36 1.357,1.36 0.363,0 0.693,-0.147 0.937,-0.379 z"
           class="si-glyph-fill"
           id="path10659" />
      </g>
      <text
         sodipodi:linespacing="125%"
         id="text11155"
         y="75.242783"
         x="234.45805"
         style="font-style:normal;font-weight:normal;font-size:40px;line-height:125%;font-family:sans-serif;letter-spacing:0px;word-spacing:0px;fill:#000000;fill-opacity:1;stroke:none;stroke-width:1px;stroke-linecap:butt;stroke-linejoin:miter;stroke-opacity:1"
         xml:space="preserve"><tspan
           style="font-size:15px"
           y="75.242783"
           x="234.45805"
           id="tspan11157"
           sodipodi:role="line">Public Key</tspan></text>
    </g>
    <g
       id="g11217"
       transform="translate(0,-26.113122)">
      <g
         transform="matrix(3,0,0,3,134.04129,125.08644)"
         style="fill:none;fill-rule:evenodd;stroke:none;stroke-width:1"
         id="g10564">
        <g
           style="fill:#434343"
           transform="translate(1,3)"
           id="g10566">
          <path
             inkscape:connector-curvature="0"
             d="m 14.666,0.07 -13.333,0 C 0.597,0.07 0,0.641 0,1.347 l 0,0.639 16,0 0,-0.639 C 16,0.642 15.402,0.07 14.666,0.07 l 0,0 z"
             class="si-glyph-fill"
             id="path10568" />
          <path
             inkscape:connector-curvature="0"
             d="m 0,8.648 c 0,0.731 0.597,1.323 1.333,1.323 l 13.333,0 C 15.402,9.971 16,9.379 16,8.648 l 0,-4.578 -16,0 0,4.578 0,0 z m 6,-2.745 4,0 0,1.125 -4,0 0,-1.125 0,0 z m -2.042,2.03 8.042,0 0,1.096 -8.042,0 0,-1.096 0,0 z"
             class="si-glyph-fill"
             id="path10570" />
        </g>
      </g>
      <text
         sodipodi:linespacing="125%"
         id="text11213"
         y="178.26292"
         x="161.30862"
         style="font-style:normal;font-weight:normal;font-size:40px;line-height:125%;font-family:sans-serif;text-align:center;letter-spacing:0px;word-spacing:0px;text-anchor:middle;fill:#000000;fill-opacity:1;stroke:none;stroke-width:1px;stroke-linecap:butt;stroke-linejoin:miter;stroke-opacity:1"
         xml:space="preserve"><tspan
           style="font-size:15px;text-align:center;text-anchor:middle"
           y="178.26292"
           x="161.30862"
           id="tspan11215"
           sodipodi:role="line">Color Card</tspan></text>
    </g>
    <path
       style="fill:none;fill-rule:evenodd;stroke:#000000;stroke-width:1px;stroke-linecap:butt;stroke-linejoin:miter;stroke-opacity:1;marker-end:url(#marker10927)"
       d="m 40.563063,81.453661 0,43.168029 79.265437,0"
       id="path13101"
       inkscape:connector-curvature="0" />
    <path
       inkscape:connector-curvature="0"
       id="path13115"
       d="m 280.05154,81.453665 0,43.168025 -79.26544,0"
       style="fill:none;fill-rule:evenodd;stroke:#000000;stroke-width:1px;stroke-linecap:butt;stroke-linejoin:miter;stroke-opacity:1;marker-end:url(#marker13117)" />
    <path
       style="fill:none;fill-rule:evenodd;stroke:#000000;stroke-width:1px;stroke-linecap:butt;stroke-linejoin:miter;stroke-opacity:1;marker-end:url(#marker13417)"
       d="m 159.64728,81.453661 0,20.467599"
       id="path13409"
       inkscape:connector-curvature="0" />
  </g>
</svg>
