<?xml version="1.0" encoding="UTF-8" standalone="no"?>
<!-- Created with Inkscape (http://www.inkscape.org/) -->

<svg
   xmlns:dc="http://purl.org/dc/elements/1.1/"
   xmlns:cc="http://creativecommons.org/ns#"
   xmlns:rdf="http://www.w3.org/1999/02/22-rdf-syntax-ns#"
   xmlns:svg="http://www.w3.org/2000/svg"
   xmlns="http://www.w3.org/2000/svg"
   xmlns:sodipodi="http://sodipodi.sourceforge.net/DTD/sodipodi-0.dtd"
   xmlns:inkscape="http://www.inkscape.org/namespaces/inkscape"
   width="210mm"
   height="297mm"
   viewBox="0 0 744.09448819 1052.3622047"
   id="svg2"
   version="1.1"
   inkscape:version="0.91 r13725"
   sodipodi:docname="derivation-1.svg">
  <defs
     id="defs4">
    <marker
       inkscape:isstock="true"
       style="overflow:visible;"
       id="marker9281"
       refX="0.0"
       refY="0.0"
       orient="auto"
       inkscape:stockid="Arrow1Lend">
      <path
         transform="scale(0.8) rotate(180) translate(12.5,0)"
         style="fill-rule:evenodd;stroke:#000000;stroke-width:1pt;stroke-opacity:1;fill:#000000;fill-opacity:1"
         d="M 0.0,0.0 L 5.0,-5.0 L -12.5,0.0 L 5.0,5.0 L 0.0,0.0 z "
         id="path9283" />
    </marker>
    <marker
       inkscape:stockid="Arrow1Lend"
       orient="auto"
       refY="0.0"
       refX="0.0"
       id="Arrow1Lend"
       style="overflow:visible;"
       inkscape:isstock="true"
       inkscape:collect="always">
      <path
         id="path8370"
         d="M 0.0,0.0 L 5.0,-5.0 L -12.5,0.0 L 5.0,5.0 L 0.0,0.0 z "
         style="fill-rule:evenodd;stroke:#000000;stroke-width:1pt;stroke-opacity:1;fill:#000000;fill-opacity:1"
         transform="scale(0.8) rotate(180) translate(12.5,0)" />
    </marker>
    <marker
       inkscape:isstock="true"
       style="overflow:visible;"
       id="marker8910"
       refX="0.0"
       refY="0.0"
       orient="auto"
       inkscape:stockid="Arrow1Lend">
      <path
         transform="scale(0.8) rotate(180) translate(12.5,0)"
         style="fill-rule:evenodd;stroke:#000000;stroke-width:1pt;stroke-opacity:1;fill:#000000;fill-opacity:1"
         d="M 0.0,0.0 L 5.0,-5.0 L -12.5,0.0 L 5.0,5.0 L 0.0,0.0 z "
         id="path8912" />
    </marker>
    <marker
       inkscape:isstock="true"
       style="overflow:visible;"
       id="marker8677"
       refX="0.0"
       refY="0.0"
       orient="auto"
       inkscape:stockid="Arrow1Lend">
      <path
         transform="scale(0.8) rotate(180) translate(12.5,0)"
         style="fill-rule:evenodd;stroke:#000000;stroke-width:1pt;stroke-opacity:1;fill:#000000;fill-opacity:1"
         d="M 0.0,0.0 L 5.0,-5.0 L -12.5,0.0 L 5.0,5.0 L 0.0,0.0 z "
         id="path8679" />
    </marker>
  </defs>
  <sodipodi:namedview
     id="base"
     pagecolor="#ffffff"
     bordercolor="#666666"
     borderopacity="1.0"
     inkscape:pageopacity="0.0"
     inkscape:pageshadow="2"
     inkscape:zoom="2.5179137"
     inkscape:cx="62.164523"
     inkscape:cy="952.71389"
     inkscape:document-units="px"
     inkscape:current-layer="layer1"
     showgrid="false"
     inkscape:window-width="1280"
     inkscape:window-height="751"
     inkscape:window-x="0"
     inkscape:window-y="0"
     inkscape:window-maximized="1" />
  <metadata
     id="metadata7">
    <rdf:RDF>
      <cc:Work
         rdf:about="">
        <dc:format>image/svg+xml</dc:format>
        <dc:type
           rdf:resource="http://purl.org/dc/dcmitype/StillImage" />
        <dc:title />
      </cc:Work>
    </rdf:RDF>
  </metadata>
  <g
     inkscape:label="Layer 1"
     inkscape:groupmode="layer"
     id="layer1">
    <text
       xml:space="preserve"
       style="font-style:normal;font-weight:normal;font-size:120px;line-height:125%;font-family:sans-serif;letter-spacing:0px;word-spacing:0px;fill:#000000;fill-opacity:1;stroke:none;stroke-width:1px;stroke-linecap:butt;stroke-linejoin:miter;stroke-opacity:1"
       x="1424.3796"
       y="220.88008"
       id="text4151"
       sodipodi:linespacing="125%"><tspan
         sodipodi:role="line"
         id="tspan4153"
         x="1424.3796"
         y="220.88008" /></text>
    <path
       style="fill:none;fill-rule:evenodd;stroke:#000000;stroke-width:1;stroke-linecap:butt;stroke-linejoin:miter;stroke-miterlimit:4;stroke-dasharray:none;stroke-opacity:1;marker-end:url(#Arrow1Lend)"
       d="m 36.212177,73.64034 0,49.64427 34.155261,0"
       id="path9253"
       inkscape:connector-curvature="0" />
    <path
       inkscape:connector-curvature="0"
       id="path9279"
       d="m 170.04741,73.64034 0,49.64427 -34.15526,0"
       style="fill:none;fill-rule:evenodd;stroke:#000000;stroke-width:1;stroke-linecap:butt;stroke-linejoin:miter;stroke-miterlimit:4;stroke-dasharray:none;stroke-opacity:1;marker-end:url(#marker9281)" />
    <g
       id="g12102">
      <g
         transform="matrix(3,0,0,3,11.480303,3.1109453)"
         style="fill:none;fill-rule:evenodd;stroke:none;stroke-width:1"
         id="g4253">
        <path
           style="fill:#434343"
           inkscape:connector-curvature="0"
           d="m 14.991,6.153 c -0.351,0 -1.952,0.454 -3.948,0.788 C 12.465,5.36 13.811,4.186 14.004,3.879 14.58,2.962 14.239,1.787 13.241,1.257 12.242,0.727 10.967,1.041 10.389,1.959 10.199,2.264 9.767,3.908 8.999,5.819 8.231,3.908 7.8,2.263 7.611,1.959 7.032,1.041 5.757,0.727 4.759,1.257 3.761,1.788 3.419,2.962 3.997,3.879 4.187,4.186 5.534,5.359 6.958,6.941 4.96,6.607 3.358,6.153 3.008,6.153 c -1.08,0 -1.955,0.842 -1.955,1.882 0,1.038 0.875,1.88 1.955,1.88 0.351,0 1.93,-0.448 3.907,-0.782 -1.408,1.557 -2.731,2.711 -2.92,3.014 -0.576,0.92 -0.234,2.092 0.764,2.624 0.998,0.528 2.273,0.216 2.851,-0.703 0.19,-0.304 0.622,-1.948 1.39,-3.86 0.769,1.912 1.199,3.557 1.392,3.86 0.575,0.919 1.851,1.233 2.85,0.703 0.998,-0.531 1.339,-1.704 0.763,-2.622 -0.189,-0.305 -1.511,-1.459 -2.918,-3.016 1.978,0.334 3.557,0.782 3.905,0.782 1.08,0 1.956,-0.842 1.956,-1.88 -0.001,-1.04 -0.877,-1.882 -1.957,-1.882 l 0,0 z"
           class="si-glyph-fill"
           id="path4255" />
      </g>
      <text
         sodipodi:linespacing="125%"
         id="text9484"
         y="67.008408"
         x="2.8512254"
         style="font-style:normal;font-weight:normal;font-size:40px;line-height:125%;font-family:sans-serif;letter-spacing:0px;word-spacing:0px;fill:#000000;fill-opacity:1;stroke:none;stroke-width:1px;stroke-linecap:butt;stroke-linejoin:miter;stroke-opacity:1"
         xml:space="preserve"><tspan
           style="font-size:15px"
           y="67.008408"
           x="2.8512254"
           id="tspan9486"
           sodipodi:role="line">Password</tspan></text>
    </g>
    <g
       id="g12108">
      <g
         transform="matrix(3,0,0,3,142.70312,3.1543917)"
         style="fill:none;fill-rule:evenodd;stroke:none;stroke-width:1"
         id="g4322">
        <path
           inkscape:connector-curvature="0"
           id="path4324"
           d="M 14.763,0 C 10.828639,0.00739269 6.893334,-0.01480746 2.9595649,0.01113892 1.7829153,0.1020356 0.90840948,1.2746585 1.043,2.4253014 1.05029,6.3051313 1.02838,10.185876 1.054013,14.065132 1.139047,15.237871 2.2937327,16.136263 3.4483012,15.999 7.2926206,15.9916 11.137882,16.01379 14.981611,15.98787 16.158301,15.89758 17.033837,14.725583 16.899,13.574697 16.8916,9.6948658 16.91385,5.8140975 16.88781,1.9348552 16.798357,0.86852613 15.838189,-0.01952995 14.763,0 Z M 5.002,6.153 C 3.6713502,6.1944136 2.6234255,4.7615116 2.9923259,3.4995963 3.2544331,2.2594652 4.7727563,1.5114994 5.9017951,2.1164362 7.1377817,2.6794478 7.4703301,4.4768508 6.5385026,5.4572586 6.1551388,5.8933729 5.5838792,6.156857 5.002,6.153 Z m 8,0 C 11.67135,6.1944136 10.623426,4.7615116 10.992326,3.4995963 11.254433,2.2594652 12.772756,1.5114994 13.901795,2.1164362 15.137782,2.6794478 15.47033,4.4768508 14.538503,5.4572586 14.155439,5.8932163 13.583559,6.1569774 13.002,6.153 Z m 0,8 c -1.33065,0.04141 -2.378574,-1.391488 -2.009674,-2.653404 0.262107,-1.240131 1.78043,-1.9880966 2.909469,-1.38316 1.235987,0.563012 1.568535,2.360415 0.636708,3.340823 C 14.155439,13.893216 13.583559,14.156977 13.002,14.153 Z m -4,-4 C 7.6713502,10.194414 6.6234255,8.7615116 6.9923259,7.4995963 7.2544331,6.2594652 8.7727563,5.5114994 9.9017951,6.1164362 11.137782,6.6794478 11.47033,8.4768508 10.538503,9.4572586 10.155439,9.8932163 9.5835585,10.156977 9.002,10.153 Z m -4,4 C 3.6713502,14.19441 2.6234255,12.761512 2.9923259,11.499596 3.2544331,10.259465 4.7727563,9.5114994 5.9017951,10.116436 7.1377817,10.679448 7.4703301,12.476851 6.5385026,13.457259 6.1554386,13.893216 5.5835585,14.156977 5.002,14.153 Z"
           style="fill:#434343" />
      </g>
      <text
         sodipodi:linespacing="125%"
         id="text9488"
         y="67.008408"
         x="154.96127"
         style="font-style:normal;font-weight:normal;font-size:40px;line-height:125%;font-family:sans-serif;letter-spacing:0px;word-spacing:0px;fill:#000000;fill-opacity:1;stroke:none;stroke-width:1px;stroke-linecap:butt;stroke-linejoin:miter;stroke-opacity:1"
         xml:space="preserve"><tspan
           style="font-size:15px"
           y="67.008408"
           x="154.96127"
           id="tspan9490"
           sodipodi:role="line">Salt</tspan></text>
    </g>
    <g
       id="g12114"
       transform="translate(6,-5.5373924)">
      <g
         transform="matrix(3,0,0,3,70.893026,91.773334)"
         style="fill:none;fill-rule:evenodd;stroke:none;stroke-width:1"
         id="g9193">
        <path
           style="fill:#434343"
           inkscape:connector-curvature="0"
           d="M 12.927,0 C 10.779,0 9.031,1.802 9.031,4.017 l 0,1.662 C 8.268,5.272 7.404,5.028 6.479,5.028 c -3.017,0 -5.458,2.445 -5.458,5.458 0,3.017 2.441,5.46 5.458,5.46 3.015,0 5.458,-2.443 5.458,-5.46 0,-1.161 -0.38,-2.223 -1,-3.106 l 0,-3.362 c 0,-1.112 0.943,-2.017 1.989,-2.017 l 0.177,0 c 1.046,0 1.896,0.904 1.896,2.017 l 0,2.883 2,0 0,-2.883 C 17,1.802 15.252,0 13.104,0 L 12.927,0 Z M 7.416,11.467 9.994,10.714 c -0.119,1.847 -1.639,3.312 -3.515,3.312 -1.954,0 -3.54,-1.586 -3.54,-3.54 0,-1.953 1.586,-3.536 3.54,-3.536 1.888,0 3.419,1.484 3.521,3.349 L 7.427,9.518 C 7.182,9.279 6.849,9.13 6.48,9.13 c -0.75,0 -1.358,0.609 -1.358,1.356 -10e-4,0.749 0.607,1.36 1.357,1.36 0.363,0 0.693,-0.147 0.937,-0.379 z"
           class="si-glyph-fill"
           id="path9195" />
      </g>
      <text
         sodipodi:linespacing="125%"
         id="text9546"
         y="154.77948"
         x="97.410332"
         style="font-style:normal;font-weight:normal;font-size:40px;line-height:125%;font-family:sans-serif;letter-spacing:0px;word-spacing:0px;fill:#000000;fill-opacity:1;stroke:none;stroke-width:1px;stroke-linecap:butt;stroke-linejoin:miter;stroke-opacity:1"
         xml:space="preserve"><tspan
           id="tspan9554"
           style="font-size:15px;text-align:center;text-anchor:middle"
           y="154.77948"
           x="97.410332"
           sodipodi:role="line">Public Key</tspan></text>
    </g>
  </g>
</svg>
