<?xml version="1.0" encoding="utf-8"?>
<!-- Generator: Adobe Illustrator 21.0.2, SVG Export Plug-In . SVG Version: 6.00 Build 0)  -->
<!DOCTYPE svg PUBLIC "-//W3C//DTD SVG 1.1//EN" "http://www.w3.org/Graphics/SVG/1.1/DTD/svg11.dtd">
<svg version="1.1" id="Layer_1" xmlns="http://www.w3.org/2000/svg" xmlns:xlink="http://www.w3.org/1999/xlink" x="0px" y="0px"
	 viewBox="0 0 600 401" style="enable-background:new 0 0 600 401;" xml:space="preserve">
<style type="text/css">
	.st0{fill:#02D3AF;}
	.st1{enable-background:new    ;}
</style>
<g>
	<g>
		<path class="st0" d="M572.7,26.9v345.5H25.8V26.9H572.7 M593.4,6.2H5.1V393h588.3L593.4,6.2L593.4,6.2z"/>
	</g>
</g>
<g>
	<g>
		<rect x="59.2" y="321.3" class="st0" width="127" height="20.7"/>
	</g>
</g>
<g class="st1">
	<path class="st0" d="M67,66.7h-5.1v17.2h-4.2V66.7h-5v-3.5H67V66.7z"/>
	<path class="st0" d="M84.9,83.9h-4.2v-8.9h-6.2v8.9h-4.2V63.2h4.2v8.4h6.2v-8.4h4.2V83.9z"/>
	<path class="st0" d="M99.9,75h-6.5v5.5h7.7v3.5H89.2V63.2h11.9v3.5h-7.7v4.9h6.5V75z"/>
</g>
<g class="st1">
	<path class="st0" d="M93.6,134.1c-0.3,6.3-2,11-5.3,14.2c-3.2,3.2-7.8,4.8-13.8,4.8c-6.2,0-11-2-14.3-6.1c-3.3-4.1-5-9.9-5-17.5
		v-9.3c0-7.6,1.7-13.4,5.1-17.5c3.4-4.1,8.2-6.1,14.3-6.1c6,0,10.6,1.7,13.7,5c3.1,3.4,4.9,8.2,5.3,14.4H82.5
		c-0.1-3.9-0.7-6.6-1.8-8c-1.1-1.5-3.1-2.2-6-2.2c-3,0-5.1,1-6.3,3.1c-1.2,2.1-1.9,5.5-2,10.3v10.4c0,5.5,0.6,9.2,1.8,11.3
		c1.2,2,3.3,3.1,6.3,3.1c2.9,0,4.9-0.7,6-2.1c1.1-1.4,1.7-4,1.9-7.7H93.6z"/>
	<path class="st0" d="M141.1,129.9c0,7.4-1.7,13.1-5.2,17.2c-3.5,4.1-8.3,6.1-14.5,6.1c-6.2,0-11-2-14.6-6.1c-3.5-4-5.3-9.7-5.4-17
		v-9.4c0-7.6,1.8-13.5,5.3-17.7c3.5-4.2,8.4-6.4,14.6-6.4c6.1,0,10.9,2.1,14.5,6.3c3.5,4.2,5.3,10,5.4,17.6V129.9z M130,120.6
		c0-5-0.7-8.7-2.1-11.1s-3.6-3.6-6.6-3.6c-2.9,0-5.1,1.2-6.5,3.5c-1.4,2.3-2.1,5.9-2.2,10.6v9.8c0,4.8,0.7,8.4,2.2,10.6
		s3.7,3.4,6.7,3.4c2.9,0,5.1-1.1,6.5-3.3c1.4-2.2,2.1-5.7,2.2-10.4V120.6z"/>
	<path class="st0" d="M162.1,143.2h19.5v9.2H151v-55h11.1V143.2z"/>
	<path class="st0" d="M226.3,129.9c0,7.4-1.7,13.1-5.2,17.2c-3.5,4.1-8.3,6.1-14.5,6.1c-6.2,0-11-2-14.6-6.1c-3.5-4-5.3-9.7-5.4-17
		v-9.4c0-7.6,1.8-13.5,5.3-17.7c3.5-4.2,8.4-6.4,14.6-6.4c6.1,0,10.9,2.1,14.5,6.3c3.5,4.2,5.3,10,5.4,17.6V129.9z M215.2,120.6
		c0-5-0.7-8.7-2.1-11.1s-3.6-3.6-6.6-3.6c-2.9,0-5.1,1.2-6.5,3.5c-1.4,2.3-2.1,5.9-2.2,10.6v9.8c0,4.8,0.7,8.4,2.2,10.6
		s3.7,3.4,6.7,3.4c2.9,0,5.1-1.1,6.5-3.3c1.4-2.2,2.1-5.7,2.2-10.4V120.6z"/>
	<path class="st0" d="M272,97.4v38.1c-0.1,5.7-1.6,10.1-4.7,13.1c-3.1,3-7.5,4.6-13.3,4.6c-5.9,0-10.4-1.5-13.5-4.6
		c-3.1-3.1-4.7-7.5-4.7-13.3V97.4H247v37.9c0,3.1,0.5,5.4,1.5,6.7c1,1.3,2.8,2,5.5,2c2.6,0,4.5-0.7,5.4-2c1-1.3,1.5-3.5,1.5-6.5
		V97.4H272z"/>
	<path class="st0" d="M299.1,132.3h-5.5v20.1h-11.1v-55h17.7c5.6,0,9.9,1.4,12.9,4.3c3,2.9,4.6,7,4.6,12.3c0,7.3-2.7,12.4-8,15.3
		l9.6,22.5v0.5h-11.9L299.1,132.3z M293.5,123.1h6.3c2.2,0,3.9-0.7,5-2.2c1.1-1.5,1.7-3.4,1.7-5.9c0-5.5-2.2-8.3-6.5-8.3h-6.5V123.1
		z"/>
</g>
<g class="st1">
	<path class="st0" d="M93.6,206.9c-0.3,6.3-2,11-5.3,14.2c-3.2,3.2-7.8,4.8-13.8,4.8c-6.2,0-11-2-14.3-6.1c-3.3-4.1-5-9.9-5-17.5
		v-9.3c0-7.6,1.7-13.4,5.1-17.5c3.4-4.1,8.2-6.1,14.3-6.1c6,0,10.6,1.7,13.7,5c3.1,3.4,4.9,8.2,5.3,14.4H82.5
		c-0.1-3.9-0.7-6.6-1.8-8c-1.1-1.5-3.1-2.2-6-2.2c-3,0-5.1,1-6.3,3.1c-1.2,2.1-1.9,5.5-2,10.3v10.4c0,5.5,0.6,9.2,1.8,11.3
		c1.2,2,3.3,3.1,6.3,3.1c2.9,0,4.9-0.7,6-2.1c1.1-1.4,1.7-4,1.9-7.7H93.6z"/>
	<path class="st0" d="M128.6,214h-15.2l-2.9,11.3H98.8l17.2-55h10.2l17.3,55h-11.9L128.6,214z M115.9,204.7h10.3l-5.1-19.6
		L115.9,204.7z"/>
	<path class="st0" d="M167.2,205.1h-5.5v20.1h-11.1v-55h17.7c5.6,0,9.9,1.4,12.9,4.3c3,2.9,4.6,7,4.6,12.3c0,7.3-2.7,12.4-8,15.3
		l9.6,22.5v0.5h-11.9L167.2,205.1z M161.7,195.9h6.3c2.2,0,3.9-0.7,5-2.2c1.1-1.5,1.7-3.4,1.7-5.9c0-5.5-2.2-8.3-6.5-8.3h-6.5V195.9
		z"/>
	<path class="st0" d="M195.3,225.2v-55h14.6c6.4,0,11.5,2,15.4,6.1c3.8,4.1,5.8,9.7,5.8,16.8v8.9c0,7.2-1.9,12.9-5.7,17
		c-3.8,4.1-9.1,6.2-15.8,6.2H195.3z M206.4,179.4V216h3.3c3.7,0,6.3-1,7.8-2.9c1.5-2,2.3-5.3,2.4-10.1v-9.6c0-5.1-0.7-8.7-2.2-10.8
		c-1.4-2-3.9-3.1-7.3-3.2H206.4z"/>
</g>
</svg>
