<?xml version="1.0" encoding="utf-8"?>
<!-- Generator: Adobe Illustrator 21.0.2, SVG Export Plug-In . SVG Version: 6.00 Build 0)  -->
<!DOCTYPE svg PUBLIC "-//W3C//DTD SVG 1.1//EN" "http://www.w3.org/Graphics/SVG/1.1/DTD/svg11.dtd">
<svg version="1.1" id="Layer_1" xmlns="http://www.w3.org/2000/svg" xmlns:xlink="http://www.w3.org/1999/xlink" x="0px" y="0px"
	 viewBox="0 0 176.7 88.3" style="enable-background:new 0 0 176.7 88.3;" xml:space="preserve">
<style type="text/css">
	.st0{fill:#E9FBF4;}
	.st1{fill:#F8FEFC;}
	.st2{display:none;opacity:0.36;fill:#D0E9ED;}
	.st3{fill:none;stroke:#02D38D;stroke-width:5.6693;stroke-miterlimit:10;}
	.st4{fill:#02D38D;}
	.st5{fill:none;stroke:#02D38D;stroke-width:8.5039;stroke-miterlimit:10;}
	.st6{fill:none;stroke:#02D38D;stroke-width:4.252;stroke-miterlimit:10;}
	.st7{fill-rule:evenodd;clip-rule:evenodd;fill:#02D38D;}
	.st8{fill:none;stroke:#A5A4A4;stroke-width:4.252;stroke-miterlimit:10;}
	.st9{fill:none;stroke:#A5A4A4;stroke-width:4.252;stroke-miterlimit:10;stroke-dasharray:8.5039,5.6693;}
	.st10{fill:#A5A4A4;}
	.st11{opacity:0.1;}
	.st12{fill:#BFF3E3;}
	.st13{fill:#E4EAE8;}
</style>
<rect x="75.9" y="15.4" transform="matrix(0.9579 -0.2872 0.2872 0.9579 -7.5806 36.2105)" class="st0" width="87.5" height="57.1"/>
<path class="st4" d="M84.9,85.8L67.6,28.1l86.8-26l17.3,57.7L84.9,85.8z M71.5,30.2L87,81.9l80.8-24.2L152.3,6L71.5,30.2z"/>
<path class="st4" d="M119.4,22l7.5,25.1l-40.1,12L79.4,34L119.4,22 M121,19L76.4,32.4L85.3,62l44.6-13.4L121,19L121,19z"/>
<rect x="83.6" y="33.4" transform="matrix(0.9578 -0.2873 0.2873 0.9578 -6.3398 28.2198)" class="st4" width="18.8" height="4.7"/>
<rect x="85.6" y="40.6" transform="matrix(0.9579 -0.2872 0.2872 0.9579 -8.4952 28.008)" class="st4" width="11.2" height="4.7"/>
<rect x="88.3" y="50.9" transform="matrix(0.9579 -0.2871 0.2871 0.9579 -11.0563 28.7582)" class="st4" width="8.5" height="2.3"/>
<rect x="131.7" y="13.8" transform="matrix(0.9579 -0.2871 0.2871 0.9579 1.6501 41.147)" class="st4" width="18.8" height="2.3"/>
<rect x="144.3" y="17.2" transform="matrix(0.9579 -0.2872 0.2872 0.9579 0.1819 43.4347)" class="st7" width="7.7" height="7.7"/>
<rect x="127.1" y="57.2" transform="matrix(0.9579 -0.2871 0.2871 0.9579 -10.6666 44.0418)" class="st4" width="35.5" height="2.3"/>
<rect x="144.4" y="48.8" transform="matrix(0.9579 -0.2871 0.2871 0.9579 -7.9192 45.8875)" class="st4" width="16.1" height="2.3"/>
<g>
	<rect x="38.7" y="9.1" class="st4" width="74.6" height="1.4"/>
</g>
<g>
	<rect x="26.2" y="15.2" class="st4" width="63.7" height="1.4"/>
</g>
<g>
	<rect x="21.2" y="21.4" class="st4" width="52.6" height="1.4"/>
</g>
<g>
	<rect x="26.9" y="27.6" class="st4" width="34.4" height="1.4"/>
</g>
<g>
	<rect x="17.1" y="33.8" class="st4" width="45.8" height="1.4"/>
</g>
<g>
	
		<rect x="2" y="39.9" transform="matrix(1 -2.754810e-03 2.754810e-03 1 -0.1117 9.305631e-02)" class="st4" width="63.4" height="1.4"/>
</g>
<g>
	<rect x="9.2" y="46.1" class="st4" width="58.4" height="1.4"/>
</g>
<g>
	<rect x="23.9" y="52.3" class="st4" width="46.2" height="1.4"/>
</g>
<g>
	<rect x="37.8" y="58.4" class="st4" width="33.9" height="1.4"/>
</g>
<g>
	<rect x="33" y="64.6" class="st4" width="40.8" height="1.4"/>
</g>
<g>
	<rect x="23.9" y="70.8" class="st4" width="52.5" height="1.4"/>
</g>
<g>
	<rect x="44.9" y="77" class="st4" width="32.5" height="1.4"/>
</g>
</svg>
