<?xml version="1.0" encoding="utf-8"?>
<!-- Generator: Adobe Illustrator 21.0.2, SVG Export Plug-In . SVG Version: 6.00 Build 0)  -->
<!DOCTYPE svg PUBLIC "-//W3C//DTD SVG 1.1//EN" "http://www.w3.org/Graphics/SVG/1.1/DTD/svg11.dtd">
<svg version="1.1" id="Layer_1" xmlns="http://www.w3.org/2000/svg" xmlns:xlink="http://www.w3.org/1999/xlink" x="0px" y="0px"
	 width="44px" height="32px" viewBox="0 0 44 32" style="enable-background:new 0 0 44 32;" xml:space="preserve">
<style type="text/css">
	.st0{display:none;fill:#FFFFFF;}
	.st1{display:none;}
	.st2{display:inline;fill:#FFFFFF;}
	.st3{fill:#FFFFFF;}
</style>
<path class="st0" d="M39.1,5.2v21.6H6.9V5.2H39.1 M42.5,1.8H3.5v28.5h39.1V1.8L42.5,1.8z"/>
<g class="st1">
	<rect x="26.7" y="8.2" class="st2" width="9.8" height="3.5"/>
</g>
<g class="st1">
	<rect x="26.7" y="20.4" class="st2" width="9.8" height="3.5"/>
</g>
<g class="st1">
	<rect x="26.7" y="14.3" class="st2" width="9.8" height="3.5"/>
</g>
<g>
	<rect x="25" y="15" class="st3" width="10" height="3"/>
	<rect x="25" y="9" class="st3" width="10" height="3"/>
	<rect x="25" y="21" class="st3" width="10" height="3"/>
	<path class="st3" d="M41,6V3h-3H6H3v3v21v3h3h32h3v-3V6z M38,27H6V6h32V27z"/>
</g>
</svg>
