<?xml version="1.0" encoding="utf-8"?>
<!-- Generator: Adobe Illustrator 21.0.2, SVG Export Plug-In . SVG Version: 6.00 Build 0)  -->
<!DOCTYPE svg PUBLIC "-//W3C//DTD SVG 1.1//EN" "http://www.w3.org/Graphics/SVG/1.1/DTD/svg11.dtd">
<svg version="1.1" id="Layer_1" xmlns="http://www.w3.org/2000/svg" xmlns:xlink="http://www.w3.org/1999/xlink" x="0px" y="0px"
	 width="410px" height="272px" viewBox="0 0 410 272" style="enable-background:new 0 0 410 272;" xml:space="preserve">
<style type="text/css">
	.st0{fill:#FFFFFF;}
</style>
<g>
	<path class="st0" d="M207.1,69.4h-4.5v11.3h4.3c1.5,0,2.7-0.5,3.4-1.5c0.8-1,1.1-2.4,1.1-4.1C211.5,71.3,210.1,69.4,207.1,69.4z"/>
	<path class="st0" d="M147,92.7c1-1.5,1.5-3.9,1.5-7.1V79c0-3.4-0.5-5.9-1.5-7.6c-1-1.7-2.5-2.5-4.5-2.5c-2,0-3.5,0.8-4.5,2.4
		s-1.5,4-1.5,7.3v6.7c0,3.3,0.5,5.7,1.5,7.3c1,1.6,2.5,2.3,4.6,2.3C144.5,95,146,94.3,147,92.7z"/>
	<path class="st0" d="M114.9,121.4h-4.5v11.3h4.3c1.5,0,2.7-0.5,3.4-1.5c0.8-1,1.1-2.4,1.1-4.1C119.3,123.3,117.9,121.4,114.9,121.4
		z"/>
	<path class="st0" d="M144.2,121.4h-2.8v25.1h2.3c2.5,0,4.3-0.7,5.4-2c1-1.3,1.6-3.7,1.6-6.9V131c0-3.5-0.5-6-1.5-7.4
		S146.6,121.5,144.2,121.4z"/>
	<polygon class="st0" points="78.5,138.8 85.5,138.8 82,125.3 	"/>
	<path class="st0" d="M-0.5-0.5v272h410v-272H-0.5z M406.5,268.5H3.5V3.5h403V268.5z"/>
	<path class="st0" d="M82.8,95c2,0,3.5-0.8,4.4-2.3c1-1.5,1.5-3.9,1.5-7.1V79c0-3.4-0.5-5.9-1.5-7.6c-1-1.7-2.5-2.5-4.5-2.5
		c-2,0-3.5,0.8-4.5,2.4s-1.5,4-1.5,7.3v6.7c0,3.3,0.5,5.7,1.5,7.3C79.2,94.2,80.7,95,82.8,95z"/>
	<path class="st0" d="M392.3,17.7H17.7v236.7h374.7V17.7z M103.2,63.1h7.6v31.4h13.4v6.3h-21V63.1z M69.1,79.1
		c0-5.2,1.2-9.2,3.6-12.2c2.4-2.9,5.7-4.4,10-4.4c4.2,0,7.5,1.4,9.9,4.3c2.4,2.9,3.6,6.9,3.7,12v6.5c0,5.1-1.2,9-3.6,11.8
		c-2.4,2.8-5.7,4.2-10,4.2c-4.2,0-7.6-1.4-10-4.2c-2.4-2.8-3.6-6.7-3.7-11.7V79.1z M97.4,152.9h-8.1l-2-7.7H76.8l-2,7.7h-8.1
		l11.8-37.8h7L97.4,152.9z M60.6,37.6h8.1V40h-5.3v3.4H68v2.3h-4.5v3.8h5.3v2.4h-8.2V37.6z M63.5,75.9h-7.7
		c-0.1-2.7-0.5-4.5-1.2-5.5c-0.8-1-2.1-1.5-4.1-1.5c-2,0-3.5,0.7-4.3,2.1s-1.3,3.8-1.3,7v7.1c0,3.8,0.4,6.3,1.3,7.7
		c0.8,1.4,2.3,2.1,4.3,2.1c2,0,3.4-0.5,4.2-1.5c0.8-1,1.2-2.7,1.3-5.3h7.6c-0.2,4.3-1.4,7.6-3.6,9.8c-2.2,2.2-5.4,3.3-9.4,3.3
		c-4.3,0-7.5-1.4-9.8-4.2c-2.3-2.8-3.4-6.8-3.4-12v-6.4c0-5.2,1.2-9.2,3.5-12c2.4-2.8,5.6-4.2,9.8-4.2c4.1,0,7.2,1.2,9.4,3.4
		C62,68.3,63.2,71.6,63.5,75.9z M47.6,37.6h2.9v5.8h4.2v-5.8h2.9v14.2h-2.9v-6.1h-4.2v6.1h-2.9V37.6z M35.3,37.6h9.9V40h-3.5v11.8
		h-2.9V40h-3.5V37.6z M37.2,130.8c0-5.2,1.2-9.2,3.5-12c2.4-2.8,5.6-4.2,9.8-4.2c4.1,0,7.2,1.2,9.4,3.4c2.1,2.3,3.4,5.6,3.6,9.9
		h-7.7c-0.1-2.7-0.5-4.5-1.2-5.5c-0.8-1-2.1-1.5-4.1-1.5c-2,0-3.5,0.7-4.3,2.1s-1.3,3.8-1.3,7v7.1c0,3.8,0.4,6.3,1.3,7.7
		c0.8,1.4,2.3,2.1,4.3,2.1c2,0,3.4-0.5,4.2-1.5c0.8-1,1.2-2.7,1.3-5.3h7.6c-0.2,4.3-1.4,7.6-3.6,9.8c-2.2,2.2-5.4,3.3-9.4,3.3
		c-4.3,0-7.5-1.4-9.8-4.2c-2.3-2.8-3.4-6.8-3.4-12V130.8z M127.5,233.6h-87v-14.2h87V233.6z M128.1,152.9h-8.2l-5.7-13.8h-3.8v13.8
		h-7.6v-37.8H115c3.8,0,6.8,1,8.9,3c2.1,2,3.1,4.8,3.1,8.4c0,5-1.8,8.5-5.5,10.5l6.6,15.5V152.9z M132.6,97.2
		c-2.4-2.8-3.6-6.7-3.7-11.7v-6.5c0-5.2,1.2-9.2,3.6-12.2c2.4-2.9,5.7-4.4,10-4.4c4.2,0,7.5,1.4,9.9,4.3c2.4,2.9,3.6,6.9,3.7,12v6.5
		c0,5.1-1.2,9-3.6,11.8c-2.4,2.8-5.7,4.2-10,4.2C138.3,101.4,135,100,132.6,97.2z M158.3,136.9c0,5-1.3,8.9-3.9,11.7
		s-6.2,4.2-10.8,4.2h-9.8v-37.8h10c4.4,0,7.9,1.4,10.5,4.2c2.6,2.8,4,6.6,4,11.5V136.9z M187.6,89.2c0,3.9-1.1,6.9-3.2,9
		s-5.2,3.1-9.2,3.1c-4,0-7.1-1.1-9.3-3.2s-3.2-5.2-3.2-9.2v-26h7.7v26c0,2.1,0.3,3.7,1,4.6c0.7,0.9,1.9,1.4,3.8,1.4
		c1.8,0,3.1-0.5,3.7-1.4c0.7-0.9,1-2.4,1-4.5V63.1h7.6V89.2z M220.3,100.9h-8.2l-5.7-13.8h-3.8v13.8H195V63.1h12.2
		c3.8,0,6.8,1,8.9,3c2.1,2,3.1,4.8,3.1,8.4c0,5-1.8,8.5-5.5,10.5l6.6,15.5V100.9z"/>
</g>
</svg>
